# xmcd CD database file
# Copyright (C) 1993-1998 Ti Kan
# 
# Track frame offsets:
#     200
#     14707
#     32017
#     66830
#     86717
#     113787
#     131785
#     157280
#     177527
#     199785
# 
# Disc length: 3120 seconds
# 
# Revision: 1
# Processed by: cddbd v1.4b41PL1 Copyright (c) Steve Scherf et al.
# Submitted via: DiscPlay 4.0.4
# 
DISCID=940c2e0a
DTITLE=The Outcasts - Bulldozer In A Daisy Patch
DYEAR=1900
DGENRE=
TTITLE0=I Don't Care
TTITLE1=She Ain't No Woman
TTITLE2=Please Pretty Lady
TTITLE3=Rock This Day
TTITLE4=Sweet Kiss
TTITLE5=Bad Boy
TTITLE6=Harry's Boston Street Boogie
TTITLE7=I Need A Woman
TTITLE8=Bulldozer In A Daisy Patch
TTITLE9=For One Night
EXTD=
EXTT0=
EXTT1=
EXTT2=
EXTT3=
EXTT4=
EXTT5=
EXTT6=
EXTT7=
EXTT8=
EXTT9=
PLAYORDER=
